<svg xmlns="http://www.w3.org/2000/svg" width="612" height="612"><path d="M401.6 325H210.4c-10.6 0-19.2 8.7-19.2 19.3s8.6 19 19.2 19h191.2c10.6 0 19-8.5 19-19s-8.4-19.2-19-19.2zM440 210.5H172c-10.4 0-19 8.5-19 19s8.6 19.2 19 19.2h268c10.4 0 19-8.5 19-19s-8.6-19.2-19-19.2zM306 0C137 0 0 120 0 267.8c0 84.5 44.8 159.7 114.8 208.8V612l134-81.3c18.5 3 37.6 4.8 57.2 4.8 169 0 306-120 306-267.7C612 119.8 475 0 306 0zm0 497.3c-22.3 0-44-2.7-64.6-7l-90 54 1-88.6c-69-41.6-114.2-110.2-114.2-188C38.2 141 158.2 38.3 306 38.3c148 0 267.8 102.7 267.8 229.4S453.8 497.4 306 497.4z"/></svg>