<svg xmlns="http://www.w3.org/2000/svg" viewBox="-77 272.9 456.8 247.4"><path d="M371.9 386.7c-.9-1.2-23.1-28.9-61-56.8C260.2 292.6 205 273 151.3 273c-53.7 0-108.8 19.7-159.6 56.9-37.9 27.9-60.1 55.6-61 56.8l-7.8 9.9 7.8 9.9c.9 1.2 23.1 28.9 61 56.8 50.7 37.3 105.9 56.9 159.6 56.9 53.7 0 108.8-19.7 159.6-56.9 37.9-27.9 60.1-55.6 61-56.8l7.8-9.9-7.8-9.9zm-220.5 96.5c-47.8 0-86.6-38.9-86.6-86.6 0-7.5 1-14.8 2.7-21.7l-19.8-3.3c-2 8.2-3 16.6-3 25 0 30.9 13.2 58.7 34.2 78.2-27.1-10-50.1-24-67.4-36.7-21.5-15.7-37.6-31.6-46.8-41.5 9.2-9.9 25.3-25.8 46.8-41.5 17.4-12.7 40.4-26.7 67.4-36.7l13.3 15c15.5-14.5 36.3-23.4 59.2-23.4 47.8 0 86.6 38.9 86.6 86.6s-38.8 86.6-86.6 86.6zm139.9-45.1c-17.4 12.7-40.4 26.7-67.4 36.7 21-19.5 34.2-47.3 34.2-78.2s-13.2-58.7-34.2-78.2c27.1 10 50.1 24 67.4 36.7 21.5 15.7 37.6 31.6 46.8 41.5-9.2 9.9-25.3 25.8-46.8 41.5z"/><path d="M96.3 379.8c-1.7 5.5-2.5 11.1-2.5 16.8 0 31.8 25.8 57.6 57.6 57.6s57.6-25.8 57.6-57.6-25.8-57.6-57.6-57.6c-15.5 0-29.6 6.1-39.9 16.1l28.4 32-43.6-7.3z"/></svg>