<?xml version="1.0" encoding="utf-8"?>
<!-- Generator: Adobe Illustrator 19.0.1, SVG Export Plug-In . SVG Version: 6.00 Build 0)  -->
<svg version="1.1" id="Слой_1" xmlns="http://www.w3.org/2000/svg" xmlns:xlink="http://www.w3.org/1999/xlink" x="0px" y="0px"
	 viewBox="-77 272.9 456.8 247.4" style="enable-background:new -77 272.9 456.8 247.4;" xml:space="preserve">
<path d="M371.9,386.7c-0.9-1.2-23.1-28.9-61-56.8c-50.7-37.3-105.9-56.9-159.6-56.9c-53.7,0-108.8,19.7-159.6,56.9
	c-37.9,27.9-60.1,55.6-61,56.8l-7.8,9.9l7.8,9.9c0.9,1.2,23.1,28.9,61,56.8c50.7,37.3,105.9,56.9,159.6,56.9
	c53.7,0,108.8-19.7,159.6-56.9c37.9-27.9,60.1-55.6,61-56.8l7.8-9.9L371.9,386.7L371.9,386.7z M151.4,483.2
	c-47.8,0-86.6-38.9-86.6-86.6c0-7.5,1-14.8,2.7-21.7l-19.8-3.3c-2,8.2-3,16.6-3,25c0,30.9,13.2,58.7,34.2,78.2
	c-27.1-10-50.1-24-67.4-36.7c-21.5-15.7-37.6-31.6-46.8-41.5c9.2-9.9,25.3-25.8,46.8-41.5c17.4-12.7,40.4-26.7,67.4-36.7l13.3,15
	c15.5-14.5,36.3-23.4,59.2-23.4c47.8,0,86.6,38.9,86.6,86.6S199.2,483.2,151.4,483.2z M291.3,438.1c-17.4,12.7-40.4,26.7-67.4,36.7
	c21-19.5,34.2-47.3,34.2-78.2s-13.2-58.7-34.2-78.2c27.1,10,50.1,24,67.4,36.7c21.5,15.7,37.6,31.6,46.8,41.5
	C328.9,406.5,312.8,422.4,291.3,438.1L291.3,438.1z"/>
<path d="M96.3,379.8c-1.7,5.5-2.5,11.1-2.5,16.8c0,31.8,25.8,57.6,57.6,57.6c31.8,0,57.6-25.8,57.6-57.6S183.2,339,151.4,339
	c-15.5,0-29.6,6.1-39.9,16.1l28.4,32L96.3,379.8L96.3,379.8z"/>
</svg>
